<?xml version="1.0" encoding="UTF-8" standalone="no"?>
<!-- Created with Inkscape (http://www.inkscape.org/) -->

<svg
   version="1.1"
   id="svg48"
   width="692"
   height="666.66669"
   viewBox="0 0 692 666.66669"
   sodipodi:docname="flower.svg"
   inkscape:version="1.2 (dc2aeda, 2022-05-15)"
   xmlns:inkscape="http://www.inkscape.org/namespaces/inkscape"
   xmlns:sodipodi="http://sodipodi.sourceforge.net/DTD/sodipodi-0.dtd"
   xmlns="http://www.w3.org/2000/svg"
   xmlns:svg="http://www.w3.org/2000/svg">
  <defs
     id="defs52" />
  <sodipodi:namedview
     id="namedview50"
     pagecolor="#ffffff"
     bordercolor="#000000"
     borderopacity="0.25"
     inkscape:showpageshadow="2"
     inkscape:pageopacity="0.0"
     inkscape:pagecheckerboard="0"
     inkscape:deskcolor="#d1d1d1"
     showgrid="false"
     inkscape:zoom="2.1890749"
     inkscape:cx="55.046084"
     inkscape:cy="103.01155"
     inkscape:window-width="1255"
     inkscape:window-height="705"
     inkscape:window-x="0"
     inkscape:window-y="38"
     inkscape:window-maximized="0"
     inkscape:current-layer="g54" />
  <g
     inkscape:groupmode="layer"
     inkscape:label="Image"
     id="g54">
    <path
       id="path917"
       style="fill:#000000;stroke-width:0.277457"
       d="m 37.223918,140.217 c -5.527033,-0.29802 -3.651893,-7.91693 -9.514969,-6.05846 C 20.979176,129.30011 20.828294,119.31309 23.074751,112.018 24.659714,104.43276 26.803546,96.68837 33.347805,91.600072 37.320322,88.90295 37.482956,87.441164 32.389488,87.75785 25.901857,86.818052 18.72454,84.915684 14.89055,79.176565 7.642661,74.920476 0.97154122,66.909373 2.1778587,58.037155 4.192154,54.635065 7.3200201,54.262427 4.8222726,49.934437 7.4293139,42.486778 16.324846,39.072852 23.681198,38.973099 c 7.388058,-0.610629 15.000622,-1.799026 21.739607,2.497214 3.234898,1.554783 7.587226,5.680473 4.941934,-0.344816 -2.480035,-8.024694 -0.391866,-16.102538 3.234615,-23.204503 2.411195,-7.429494 8.431762,-16.0291857 17.07824,-15.7717389 3.741624,5.2121105 7.474033,-3.1786789 12.259393,1.1888446 7.165147,3.5972807 10.676754,11.3031373 12.773408,18.5986333 4.331345,6.140645 2.836644,14.628714 1.263694,21.491384 0.231449,2.389281 6.914851,-3.6647 10.200311,-3.788696 6.13774,-3.016627 12.38733,0.08539 18.75573,-0.557606 6.85136,0.757702 14.93773,3.978707 17.10177,11.128678 -3.49955,5.3668 6.21114,7.229697 2.34923,13.653253 -1.72909,7.31434 -7.65702,12.44253 -13.61205,16.408463 -4.31558,6.182719 -12.8204,7.011643 -19.75399,7.93416 -2.57886,0.750402 5.69629,4.7066 6.26306,7.344899 5.20289,4.853812 4.62966,11.966312 7.08124,18.046222 1.30796,6.97221 1.42555,16.38443 -5.36597,20.62178 -5.84292,-1.52301 -5.0289,7.85339 -11.82862,6.3888 -7.66255,0.73597 -14.408482,-3.55252 -20.233865,-7.87581 -7.558173,-2.72924 -11.1518,-10.92719 -13.960104,-17.88901 -2.930358,7.38733 -6.896799,15.93076 -15.100936,18.42844 -5.868421,5.12161 -13.730723,8.65001 -21.643977,6.94531 z m 8.236423,-3.625 c 6.371913,-0.78007 9.895067,-7.14723 15.752885,-8.25096 6.806204,-5.6027 9.036948,-14.39041 11.907847,-22.30711 4.238225,-0.3759 3.807249,10.76517 7.160657,14.17774 2.81487,7.18032 9.904656,8.8827 15.168799,13.35357 4.495188,2.64811 14.352531,6.43348 16.907191,0.36729 -1.12955,-7.55267 8.95119,0.62031 9.08725,-7.17029 2.31567,-6.1338 0.8291,-12.92709 -2.04121,-18.58958 1.20278,-6.64365 -5.02037,-11.699204 -9.40815,-15.743677 -2.94285,-2.309589 -13.315606,-8.518783 -3.80574,-7.823825 7.54367,0.0879 15.9676,-0.418894 22.03697,-5.352947 3.68766,-5.109975 11.45164,-7.742501 13.23597,-14.784802 3.00492,-5.03821 -1.60079,-6.755531 -4.31072,-9.305669 3.88983,-3.807992 1.58413,-7.849695 -2.97928,-9.917075 -5.07287,-3.096027 -11.17302,-2.769946 -16.80401,-2.462154 -6.24756,-3.010162 -13.3481,2.13933 -18.732727,5.272618 -2.757792,2.483057 -10.709724,7.874015 -6.908185,0.08293 2.437721,-7.232037 4.688075,-15.432061 1.95797,-22.852524 C 89.728942,20.066211 89.958496,11.549866 83.337751,7.7828735 79.613971,3.3852265 76.537813,7.3413596 73.534257,9.2829696 69.462566,1.9376384 61.950399,8.7798404 59.288501,13.828747 c -2.074733,6.40678 -6.284048,11.944942 -6.170051,18.747588 -0.816248,6.949338 3.385916,13.478703 3.867695,19.976676 -5.660445,-1.608905 -9.880312,-7.287024 -15.8087,-9.046946 -5.855042,-3.372503 -11.543084,0.0419 -17.65204,-1.030039 -5.640106,0.486353 -13.198917,2.587091 -15.0319551,8.464236 4.6928891,4.233453 0.3224184,5.949454 -2.8807942,8.175532 -0.2596241,8.117153 6.3183873,14.5524 13.0150683,18.104247 3.533144,6.314604 12.200987,6.756667 18.658985,7.220825 3.346692,-0.268768 13.355264,-0.713027 6.467198,3.590625 -6.329517,4.661951 -13.828403,9.927445 -15.595047,18.052959 -0.248607,6.5769 -5.185099,13.68572 -1.68469,20.66528 0.532875,7.72336 10.985216,-0.40282 9.19535,8.26387 1.33202,2.8726 7.1422,1.96814 9.790821,1.5784 z m 19.288353,-34.36143 c 0.146446,-5.307145 3.841377,-11.98838 4.619144,-18.221547 -0.514514,-4.045177 -5.191242,5.924014 -6.736926,7.553183 -2.304938,2.417849 -4.715754,13.811634 -7.277033,6.133985 5.037772,-4.438991 7.884988,-10.955576 11.765807,-16.423488 -5.062189,0.638664 -10.934952,6.296251 -14.370143,10.420909 -6.368414,-1.105157 0.502286,-4.838017 3.113655,-5.957713 3.226386,-2.759671 15.319272,-8.868298 7.545173,-11.887362 -6.308874,-0.892677 -12.642078,3.53263 -17.878983,3.369969 -1.001785,-5.978452 9.141879,-2.135409 12.766896,-4.760243 3.248823,-0.02733 6.59088,-1.172452 1.324041,-1.795649 -5.838579,-1.717107 -12.414378,-2.549986 -17.894395,-3.081451 -0.48101,-7.155716 8.562898,1.110153 12.697537,0.02927 2.894591,1.022851 14.151562,3.391622 7.030916,-1.109454 -2.239384,-3.206784 -13.973345,-4.175265 -7.741316,-8.259908 4.076107,3.423438 8.891469,8.382441 14.584749,9.041755 4.036496,-4.065164 -1.981093,-11.163346 -4.234228,-15.140459 1.748331,-5.515816 5.047817,0.02972 4.334392,3.137888 0.881652,3.180151 5.186974,13.061339 4.863557,4.169319 1.866999,-4.925899 -2.352691,-12.216057 1.52709,-15.081336 4.085536,2.646723 -1.310516,9.608503 0.318357,14.328774 -1.032457,3.994146 1.335701,7.630054 3.047047,1.778932 2.033827,-2.368172 2.930528,-12.462875 6.722881,-6.585479 -2.653959,2.858639 -11.038302,13.585657 -2.869844,13.687691 5.937639,-1.191138 10.617682,-8.11086 15.774818,-7.94622 0.703593,5.325939 -9.001869,4.470602 -12.250966,8.421427 -6.911434,4.199086 6.060767,0.272412 8.234601,0.05815 5.201743,0.618804 11.170749,-5.69165 14.917049,-2.625062 -1.34843,4.891292 -9.486275,1.296554 -13.645442,4.200989 -3.200262,0.80375 -16.334119,2.68525 -6.52996,3.351019 4.707971,1.809102 11.319807,0.0647 14.623782,3.094328 -2.0642,5.309323 -8.06842,-2.494597 -12.763116,-1.005134 -3.527104,-1.426952 -13.449111,-1.125715 -7.042759,3.695944 4.09898,4.252714 11.97133,6.310774 14.145921,11.005668 -3.991502,3.833201 -6.138638,-5.71965 -10.838978,-6.358689 -2.267836,-2.040779 -9.724673,-7.020028 -4.795118,-0.987153 4.561027,4.851198 6.588625,11.911124 11.253047,16.358806 2.513594,5.163951 -5.442714,3.610781 -3.782284,-1.18481 -3.0148,-5.806573 -6.525059,-11.486175 -10.871858,-16.375916 -1.181592,6.2237 4.687296,13.504218 4.045309,19.112837 -5.708625,1.22174 -1.724397,-8.241795 -4.815234,-11.709541 0.06053,-5.182625 -5.401039,-13.290274 -6.612057,-3.810147 -2.622713,5.700701 -1.75315,13.876041 -4.905233,18.036968 l -0.70775,-0.20005 -0.692144,-0.48098 z" />
  </g>
</svg>
